<?xml version="1.0" encoding="UTF-8" standalone="no"?>
<!DOCTYPE svg PUBLIC "-//W3C//DTD SVG 1.1//EN"
 "http://www.w3.org/Graphics/SVG/1.1/DTD/svg11.dtd">
<!-- Generated by graphviz version 2.40.1 (20161225.0304)
 -->
<!-- Title: historyProgrammingLanguage Pages: 1 -->
<svg width="133pt" height="720pt"
 viewBox="0.00 0.00 132.58 720.00" xmlns="http://www.w3.org/2000/svg" xmlns:xlink="http://www.w3.org/1999/xlink">
<g id="graph0" class="graph" transform="scale(.2138 .2138) rotate(0) translate(4 3363)">
<title>historyProgrammingLanguage</title>
<polygon fill="#ffffff" stroke="transparent" points="-4,4 -4,-3363 616,-3363 616,4 -4,4"/>
<!-- 1951 -->
<g id="node1" class="node">
<title>1951</title>
<polygon fill="#ffffff" stroke="transparent" points="56,-3320.5 0,-3320.5 0,-3284.5 56,-3284.5 56,-3320.5"/>
<text text-anchor="middle" x="28" y="-3297.5" font-family="Lucida Sans" font-size="20.00" fill="#000000">1951</text>
</g>
<!-- 1952 -->
<g id="node2" class="node">
<title>1952</title>
<polygon fill="#ffffff" stroke="transparent" points="56,-3210 0,-3210 0,-3174 56,-3174 56,-3210"/>
<text text-anchor="middle" x="28" y="-3187" font-family="Lucida Sans" font-size="20.00" fill="#000000">1952</text>
</g>
<!-- 1951&#45;&gt;1952 -->
<!-- 1954 -->
<g id="node3" class="node">
<title>1954</title>
<polygon fill="#ffffff" stroke="transparent" points="56,-3138 0,-3138 0,-3102 56,-3102 56,-3138"/>
<text text-anchor="middle" x="28" y="-3115" font-family="Lucida Sans" font-size="20.00" fill="#000000">1954</text>
</g>
<!-- 1952&#45;&gt;1954 -->
<!-- 1955 -->
<g id="node4" class="node">
<title>1955</title>
<polygon fill="#ffffff" stroke="transparent" points="56,-3066 0,-3066 0,-3030 56,-3030 56,-3066"/>
<text text-anchor="middle" x="28" y="-3043" font-family="Lucida Sans" font-size="20.00" fill="#000000">1955</text>
</g>
<!-- 1954&#45;&gt;1955 -->
<!-- 1957 -->
<g id="node5" class="node">
<title>1957</title>
<polygon fill="#ffffff" stroke="transparent" points="56,-2993 0,-2993 0,-2957 56,-2957 56,-2993"/>
<text text-anchor="middle" x="28" y="-2970" font-family="Lucida Sans" font-size="20.00" fill="#000000">1957</text>
</g>
<!-- 1955&#45;&gt;1957 -->
<!-- 1958 -->
<g id="node6" class="node">
<title>1958</title>
<polygon fill="#ffffff" stroke="transparent" points="56,-2920 0,-2920 0,-2884 56,-2884 56,-2920"/>
<text text-anchor="middle" x="28" y="-2897" font-family="Lucida Sans" font-size="20.00" fill="#000000">1958</text>
</g>
<!-- 1957&#45;&gt;1958 -->
<!-- 1959 -->
<g id="node7" class="node">
<title>1959</title>
<polygon fill="#ffffff" stroke="transparent" points="56,-2848 0,-2848 0,-2812 56,-2812 56,-2848"/>
<text text-anchor="middle" x="28" y="-2825" font-family="Lucida Sans" font-size="20.00" fill="#000000">1959</text>
</g>
<!-- 1958&#45;&gt;1959 -->
<!-- 1962 -->
<g id="node8" class="node">
<title>1962</title>
<polygon fill="#ffffff" stroke="transparent" points="56,-2776 0,-2776 0,-2740 56,-2740 56,-2776"/>
<text text-anchor="middle" x="28" y="-2753" font-family="Lucida Sans" font-size="20.00" fill="#000000">1962</text>
</g>
<!-- 1959&#45;&gt;1962 -->
<!-- 1963 -->
<g id="node9" class="node">
<title>1963</title>
<polygon fill="#ffffff" stroke="transparent" points="56,-2704 0,-2704 0,-2668 56,-2668 56,-2704"/>
<text text-anchor="middle" x="28" y="-2681" font-family="Lucida Sans" font-size="20.00" fill="#000000">1963</text>
</g>
<!-- 1962&#45;&gt;1963 -->
<!-- 1964 -->
<g id="node10" class="node">
<title>1964</title>
<polygon fill="#ffffff" stroke="transparent" points="56,-2632 0,-2632 0,-2596 56,-2596 56,-2632"/>
<text text-anchor="middle" x="28" y="-2609" font-family="Lucida Sans" font-size="20.00" fill="#000000">1964</text>
</g>
<!-- 1963&#45;&gt;1964 -->
<!-- 1966 -->
<g id="node11" class="node">
<title>1966</title>
<polygon fill="#ffffff" stroke="transparent" points="56,-2560 0,-2560 0,-2524 56,-2524 56,-2560"/>
<text text-anchor="middle" x="28" y="-2537" font-family="Lucida Sans" font-size="20.00" fill="#000000">1966</text>
</g>
<!-- 1964&#45;&gt;1966 -->
<!-- 1967 -->
<g id="node12" class="node">
<title>1967</title>
<polygon fill="#ffffff" stroke="transparent" points="56,-2488 0,-2488 0,-2452 56,-2452 56,-2488"/>
<text text-anchor="middle" x="28" y="-2465" font-family="Lucida Sans" font-size="20.00" fill="#000000">1967</text>
</g>
<!-- 1966&#45;&gt;1967 -->
<!-- 1968 -->
<g id="node13" class="node">
<title>1968</title>
<polygon fill="#ffffff" stroke="transparent" points="56,-2416 0,-2416 0,-2380 56,-2380 56,-2416"/>
<text text-anchor="middle" x="28" y="-2393" font-family="Lucida Sans" font-size="20.00" fill="#000000">1968</text>
</g>
<!-- 1967&#45;&gt;1968 -->
<!-- 1969 -->
<g id="node14" class="node">
<title>1969</title>
<polygon fill="#ffffff" stroke="transparent" points="56,-2344 0,-2344 0,-2308 56,-2308 56,-2344"/>
<text text-anchor="middle" x="28" y="-2321" font-family="Lucida Sans" font-size="20.00" fill="#000000">1969</text>
</g>
<!-- 1968&#45;&gt;1969 -->
<!-- 1970 -->
<g id="node15" class="node">
<title>1970</title>
<polygon fill="#ffffff" stroke="transparent" points="56,-2272 0,-2272 0,-2236 56,-2236 56,-2272"/>
<text text-anchor="middle" x="28" y="-2249" font-family="Lucida Sans" font-size="20.00" fill="#000000">1970</text>
</g>
<!-- 1969&#45;&gt;1970 -->
<!-- 1972 -->
<g id="node16" class="node">
<title>1972</title>
<polygon fill="#ffffff" stroke="transparent" points="56,-2200 0,-2200 0,-2164 56,-2164 56,-2200"/>
<text text-anchor="middle" x="28" y="-2177" font-family="Lucida Sans" font-size="20.00" fill="#000000">1972</text>
</g>
<!-- 1970&#45;&gt;1972 -->
<!-- 1973 -->
<g id="node17" class="node">
<title>1973</title>
<polygon fill="#ffffff" stroke="transparent" points="56,-2128 0,-2128 0,-2092 56,-2092 56,-2128"/>
<text text-anchor="middle" x="28" y="-2105" font-family="Lucida Sans" font-size="20.00" fill="#000000">1973</text>
</g>
<!-- 1972&#45;&gt;1973 -->
<!-- 1975 -->
<g id="node18" class="node">
<title>1975</title>
<polygon fill="#ffffff" stroke="transparent" points="56,-2056 0,-2056 0,-2020 56,-2020 56,-2056"/>
<text text-anchor="middle" x="28" y="-2033" font-family="Lucida Sans" font-size="20.00" fill="#000000">1975</text>
</g>
<!-- 1973&#45;&gt;1975 -->
<!-- 1978 -->
<g id="node19" class="node">
<title>1978</title>
<polygon fill="#ffffff" stroke="transparent" points="56,-1984 0,-1984 0,-1948 56,-1948 56,-1984"/>
<text text-anchor="middle" x="28" y="-1961" font-family="Lucida Sans" font-size="20.00" fill="#000000">1978</text>
</g>
<!-- 1975&#45;&gt;1978 -->
<!-- 1980 -->
<g id="node20" class="node">
<title>1980</title>
<polygon fill="#ffffff" stroke="transparent" points="56,-1912 0,-1912 0,-1876 56,-1876 56,-1912"/>
<text text-anchor="middle" x="28" y="-1889" font-family="Lucida Sans" font-size="20.00" fill="#000000">1980</text>
</g>
<!-- 1978&#45;&gt;1980 -->
<!-- 1983 -->
<g id="node21" class="node">
<title>1983</title>
<polygon fill="#ffffff" stroke="transparent" points="56,-1840 0,-1840 0,-1804 56,-1804 56,-1840"/>
<text text-anchor="middle" x="28" y="-1817" font-family="Lucida Sans" font-size="20.00" fill="#000000">1983</text>
</g>
<!-- 1980&#45;&gt;1983 -->
<!-- 1984 -->
<g id="node22" class="node">
<title>1984</title>
<polygon fill="#ffffff" stroke="transparent" points="56,-1768 0,-1768 0,-1732 56,-1732 56,-1768"/>
<text text-anchor="middle" x="28" y="-1745" font-family="Lucida Sans" font-size="20.00" fill="#000000">1984</text>
</g>
<!-- 1983&#45;&gt;1984 -->
<!-- 1985 -->
<g id="node23" class="node">
<title>1985</title>
<polygon fill="#ffffff" stroke="transparent" points="56,-1696 0,-1696 0,-1660 56,-1660 56,-1696"/>
<text text-anchor="middle" x="28" y="-1673" font-family="Lucida Sans" font-size="20.00" fill="#000000">1985</text>
</g>
<!-- 1984&#45;&gt;1985 -->
<!-- 1986 -->
<g id="node24" class="node">
<title>1986</title>
<polygon fill="#ffffff" stroke="transparent" points="56,-1624 0,-1624 0,-1588 56,-1588 56,-1624"/>
<text text-anchor="middle" x="28" y="-1601" font-family="Lucida Sans" font-size="20.00" fill="#000000">1986</text>
</g>
<!-- 1985&#45;&gt;1986 -->
<!-- 1987 -->
<g id="node25" class="node">
<title>1987</title>
<polygon fill="#ffffff" stroke="transparent" points="56,-1552 0,-1552 0,-1516 56,-1516 56,-1552"/>
<text text-anchor="middle" x="28" y="-1529" font-family="Lucida Sans" font-size="20.00" fill="#000000">1987</text>
</g>
<!-- 1986&#45;&gt;1987 -->
<!-- 1988 -->
<g id="node26" class="node">
<title>1988</title>
<polygon fill="#ffffff" stroke="transparent" points="56,-1480 0,-1480 0,-1444 56,-1444 56,-1480"/>
<text text-anchor="middle" x="28" y="-1457" font-family="Lucida Sans" font-size="20.00" fill="#000000">1988</text>
</g>
<!-- 1987&#45;&gt;1988 -->
<!-- 1989 -->
<g id="node27" class="node">
<title>1989</title>
<polygon fill="#ffffff" stroke="transparent" points="56,-1408 0,-1408 0,-1372 56,-1372 56,-1408"/>
<text text-anchor="middle" x="28" y="-1385" font-family="Lucida Sans" font-size="20.00" fill="#000000">1989</text>
</g>
<!-- 1988&#45;&gt;1989 -->
<!-- 1990 -->
<g id="node28" class="node">
<title>1990</title>
<polygon fill="#ffffff" stroke="transparent" points="56,-1336 0,-1336 0,-1300 56,-1300 56,-1336"/>
<text text-anchor="middle" x="28" y="-1313" font-family="Lucida Sans" font-size="20.00" fill="#000000">1990</text>
</g>
<!-- 1989&#45;&gt;1990 -->
<!-- 1991 -->
<g id="node29" class="node">
<title>1991</title>
<polygon fill="#ffffff" stroke="transparent" points="56,-1264 0,-1264 0,-1228 56,-1228 56,-1264"/>
<text text-anchor="middle" x="28" y="-1241" font-family="Lucida Sans" font-size="20.00" fill="#000000">1991</text>
</g>
<!-- 1990&#45;&gt;1991 -->
<!-- 1993 -->
<g id="node30" class="node">
<title>1993</title>
<polygon fill="#ffffff" stroke="transparent" points="56,-1192 0,-1192 0,-1156 56,-1156 56,-1192"/>
<text text-anchor="middle" x="28" y="-1169" font-family="Lucida Sans" font-size="20.00" fill="#000000">1993</text>
</g>
<!-- 1991&#45;&gt;1993 -->
<!-- 1994 -->
<g id="node31" class="node">
<title>1994</title>
<polygon fill="#ffffff" stroke="transparent" points="56,-1119 0,-1119 0,-1083 56,-1083 56,-1119"/>
<text text-anchor="middle" x="28" y="-1096" font-family="Lucida Sans" font-size="20.00" fill="#000000">1994</text>
</g>
<!-- 1993&#45;&gt;1994 -->
<!-- 1995 -->
<g id="node32" class="node">
<title>1995</title>
<polygon fill="#ffffff" stroke="transparent" points="56,-1045 0,-1045 0,-1009 56,-1009 56,-1045"/>
<text text-anchor="middle" x="28" y="-1022" font-family="Lucida Sans" font-size="20.00" fill="#000000">1995</text>
</g>
<!-- 1994&#45;&gt;1995 -->
<!-- 1997 -->
<g id="node33" class="node">
<title>1997</title>
<polygon fill="#ffffff" stroke="transparent" points="56,-972 0,-972 0,-936 56,-936 56,-972"/>
<text text-anchor="middle" x="28" y="-949" font-family="Lucida Sans" font-size="20.00" fill="#000000">1997</text>
</g>
<!-- 1995&#45;&gt;1997 -->
<!-- 2000 -->
<g id="node34" class="node">
<title>2000</title>
<polygon fill="#ffffff" stroke="transparent" points="56,-900 0,-900 0,-864 56,-864 56,-900"/>
<text text-anchor="middle" x="28" y="-877" font-family="Lucida Sans" font-size="20.00" fill="#000000">2000</text>
</g>
<!-- 1997&#45;&gt;2000 -->
<!-- 2001 -->
<g id="node35" class="node">
<title>2001</title>
<polygon fill="#ffffff" stroke="transparent" points="56,-828 0,-828 0,-792 56,-792 56,-828"/>
<text text-anchor="middle" x="28" y="-805" font-family="Lucida Sans" font-size="20.00" fill="#000000">2001</text>
</g>
<!-- 2000&#45;&gt;2001 -->
<!-- 2002 -->
<g id="node36" class="node">
<title>2002</title>
<polygon fill="#ffffff" stroke="transparent" points="56,-756 0,-756 0,-720 56,-720 56,-756"/>
<text text-anchor="middle" x="28" y="-733" font-family="Lucida Sans" font-size="20.00" fill="#000000">2002</text>
</g>
<!-- 2001&#45;&gt;2002 -->
<!-- 2003 -->
<g id="node37" class="node">
<title>2003</title>
<polygon fill="#ffffff" stroke="transparent" points="56,-684 0,-684 0,-648 56,-648 56,-684"/>
<text text-anchor="middle" x="28" y="-661" font-family="Lucida Sans" font-size="20.00" fill="#000000">2003</text>
</g>
<!-- 2002&#45;&gt;2003 -->
<!-- 2005 -->
<g id="node38" class="node">
<title>2005</title>
<polygon fill="#ffffff" stroke="transparent" points="56,-612 0,-612 0,-576 56,-576 56,-612"/>
<text text-anchor="middle" x="28" y="-589" font-family="Lucida Sans" font-size="20.00" fill="#000000">2005</text>
</g>
<!-- 2003&#45;&gt;2005 -->
<!-- 2006 -->
<g id="node39" class="node">
<title>2006</title>
<polygon fill="#ffffff" stroke="transparent" points="56,-540 0,-540 0,-504 56,-504 56,-540"/>
<text text-anchor="middle" x="28" y="-517" font-family="Lucida Sans" font-size="20.00" fill="#000000">2006</text>
</g>
<!-- 2005&#45;&gt;2006 -->
<!-- 2007 -->
<g id="node40" class="node">
<title>2007</title>
<polygon fill="#ffffff" stroke="transparent" points="56,-468 0,-468 0,-432 56,-432 56,-468"/>
<text text-anchor="middle" x="28" y="-445" font-family="Lucida Sans" font-size="20.00" fill="#000000">2007</text>
</g>
<!-- 2006&#45;&gt;2007 -->
<!-- 2009 -->
<g id="node41" class="node">
<title>2009</title>
<polygon fill="#ffffff" stroke="transparent" points="56,-396 0,-396 0,-360 56,-360 56,-396"/>
<text text-anchor="middle" x="28" y="-373" font-family="Lucida Sans" font-size="20.00" fill="#000000">2009</text>
</g>
<!-- 2007&#45;&gt;2009 -->
<!-- 2010 -->
<g id="node42" class="node">
<title>2010</title>
<polygon fill="#ffffff" stroke="transparent" points="56,-324 0,-324 0,-288 56,-288 56,-324"/>
<text text-anchor="middle" x="28" y="-301" font-family="Lucida Sans" font-size="20.00" fill="#000000">2010</text>
</g>
<!-- 2009&#45;&gt;2010 -->
<!-- 2011 -->
<g id="node43" class="node">
<title>2011</title>
<polygon fill="#ffffff" stroke="transparent" points="56,-252 0,-252 0,-216 56,-216 56,-252"/>
<text text-anchor="middle" x="28" y="-229" font-family="Lucida Sans" font-size="20.00" fill="#000000">2011</text>
</g>
<!-- 2010&#45;&gt;2011 -->
<!-- 2012 -->
<g id="node44" class="node">
<title>2012</title>
<polygon fill="#ffffff" stroke="transparent" points="56,-180 0,-180 0,-144 56,-144 56,-180"/>
<text text-anchor="middle" x="28" y="-157" font-family="Lucida Sans" font-size="20.00" fill="#000000">2012</text>
</g>
<!-- 2011&#45;&gt;2012 -->
<!-- 2014 -->
<g id="node45" class="node">
<title>2014</title>
<polygon fill="#ffffff" stroke="transparent" points="56,-108 0,-108 0,-72 56,-72 56,-108"/>
<text text-anchor="middle" x="28" y="-85" font-family="Lucida Sans" font-size="20.00" fill="#000000">2014</text>
</g>
<!-- 2012&#45;&gt;2014 -->
<!-- 2016 -->
<g id="node46" class="node">
<title>2016</title>
<polygon fill="#ffffff" stroke="transparent" points="56,-36 0,-36 0,0 56,0 56,-36"/>
<text text-anchor="middle" x="28" y="-13" font-family="Lucida Sans" font-size="20.00" fill="#000000">2016</text>
</g>
<!-- 2014&#45;&gt;2016 -->
<!-- JACQUARD_LOOM -->
<g id="node47" class="node">
<title>JACQUARD_LOOM</title>
<polygon fill="#ffffff" stroke="#ffffff" points="274,-3320.5 74,-3320.5 74,-3284.5 274,-3284.5 274,-3320.5"/>
<text text-anchor="middle" x="174" y="-3298.8" font-family="Lucida Sans" font-size="14.00" fill="#000000">Regional Assembly Language</text>
</g>
<!-- AUTOCODE -->
<g id="node48" class="node">
<title>AUTOCODE</title>
<polygon fill="#ffffff" stroke="#ffffff" points="147.5,-3210 74.5,-3210 74.5,-3174 147.5,-3174 147.5,-3210"/>
<text text-anchor="middle" x="111" y="-3188.3" font-family="Lucida Sans" font-size="14.00" fill="#000000">Autocode</text>
</g>
<!-- IPL -->
<g id="node49" class="node">
<title>IPL</title>
<polygon fill="#ffffff" stroke="#ffffff" points="128,-3138 74,-3138 74,-3102 128,-3102 128,-3138"/>
<text text-anchor="middle" x="101" y="-3116.3" font-family="Lucida Sans" font-size="14.00" fill="#000000">IPL</text>
</g>
<!-- LISP -->
<g id="node53" class="node">
<title>LISP</title>
<polygon fill="#ffffff" stroke="#ffffff" points="128,-2920 74,-2920 74,-2884 128,-2884 128,-2920"/>
<text text-anchor="middle" x="101" y="-2898.3" font-family="Lucida Sans" font-size="14.00" fill="#000000">LISP</text>
</g>
<!-- IPL&#45;&gt;LISP -->
<g id="edge46" class="edge">
<title>IPL&#45;&gt;LISP</title>
<path fill="none" stroke="#000000" d="M101,-3101.7884C101,-3063.704 101,-2975.4255 101,-2930.0455"/>
<polygon fill="#000000" stroke="#000000" points="104.5001,-2930.0064 101,-2920.0064 97.5001,-2930.0065 104.5001,-2930.0064"/>
</g>
<!-- FLOW_MATIC -->
<g id="node50" class="node">
<title>FLOW_MATIC</title>
<polygon fill="#ffffff" stroke="#ffffff" points="215,-3066 129,-3066 129,-3030 215,-3030 215,-3066"/>
<text text-anchor="middle" x="172" y="-3044.3" font-family="Lucida Sans" font-size="14.00" fill="#000000">FLOW&#45;MATIC</text>
</g>
<!-- COBOL -->
<g id="node56" class="node">
<title>COBOL</title>
<polygon fill="#ffffff" stroke="#ffffff" points="230,-2848 176,-2848 176,-2812 230,-2812 230,-2848"/>
<text text-anchor="middle" x="203" y="-2826.3" font-family="Lucida Sans" font-size="14.00" fill="#000000">COBOL</text>
</g>
<!-- FLOW_MATIC&#45;&gt;COBOL -->
<g id="edge47" class="edge">
<title>FLOW_MATIC&#45;&gt;COBOL</title>
<path fill="none" stroke="#000000" d="M174.5897,-3029.7884C180.0054,-2991.704 192.5588,-2903.4255 199.0119,-2858.0455"/>
<polygon fill="#000000" stroke="#000000" points="202.4967,-2858.3996 200.4394,-2848.0064 195.5664,-2857.4141 202.4967,-2858.3996"/>
</g>
<!-- FORTRAN -->
<g id="node51" class="node">
<title>FORTRAN</title>
<polygon fill="#ffffff" stroke="#ffffff" points="415.5,-2994 284.5,-2994 284.5,-2956 415.5,-2956 415.5,-2994"/>
<text text-anchor="middle" x="350" y="-2978.8" font-family="Lucida Sans" font-size="14.00" fill="#000000">FORTRAN</text>
<text text-anchor="middle" x="350" y="-2963.8" font-family="Lucida Sans" font-size="14.00" fill="#000000">(First compiler)</text>
</g>
<!-- COMTRAN -->
<g id="node52" class="node">
<title>COMTRAN</title>
<polygon fill="#ffffff" stroke="#ffffff" points="266,-2993 200,-2993 200,-2957 266,-2957 266,-2993"/>
<text text-anchor="middle" x="233" y="-2971.3" font-family="Lucida Sans" font-size="14.00" fill="#000000">COMTRAN</text>
</g>
<!-- COMTRAN&#45;&gt;COBOL -->
<g id="edge48" class="edge">
<title>COMTRAN&#45;&gt;COBOL</title>
<path fill="none" stroke="#000000" d="M229.2611,-2956.9288C224.1411,-2932.1821 214.896,-2887.4973 208.8536,-2858.2926"/>
<polygon fill="#000000" stroke="#000000" points="212.2395,-2857.3824 206.786,-2848.2989 205.3847,-2858.8007 212.2395,-2857.3824"/>
</g>
<!-- ALGOL58 -->
<g id="node54" class="node">
<title>ALGOL58</title>
<polygon fill="#ffffff" stroke="#ffffff" points="334.5,-2920 261.5,-2920 261.5,-2884 334.5,-2884 334.5,-2920"/>
<text text-anchor="middle" x="298" y="-2898.3" font-family="Lucida Sans" font-size="14.00" fill="#000000">ALGOL 58</text>
</g>
<!-- FACT -->
<g id="node55" class="node">
<title>FACT</title>
<polygon fill="#ffffff" stroke="#ffffff" points="158,-2848 104,-2848 104,-2812 158,-2812 158,-2848"/>
<text text-anchor="middle" x="131" y="-2826.3" font-family="Lucida Sans" font-size="14.00" fill="#000000">FACT</text>
</g>
<!-- FACT&#45;&gt;COBOL -->
<g id="edge49" class="edge">
<title>FACT&#45;&gt;COBOL</title>
<path fill="none" stroke="#000000" d="M158.2813,-2830C160.7377,-2830 163.1942,-2830 165.6507,-2830"/>
<polygon fill="#000000" stroke="#000000" points="165.7495,-2833.5001 175.7495,-2830 165.7495,-2826.5001 165.7495,-2833.5001"/>
</g>
<!-- RPG -->
<g id="node57" class="node">
<title>RPG</title>
<polygon fill="#ffffff" stroke="#ffffff" points="302,-2848 248,-2848 248,-2812 302,-2812 302,-2848"/>
<text text-anchor="middle" x="275" y="-2826.3" font-family="Lucida Sans" font-size="14.00" fill="#000000">RPG</text>
</g>
<!-- APL -->
<g id="node58" class="node">
<title>APL</title>
<polygon fill="#ffffff" stroke="#ffffff" points="128,-2776 74,-2776 74,-2740 128,-2740 128,-2776"/>
<text text-anchor="middle" x="101" y="-2754.3" font-family="Lucida Sans" font-size="14.00" fill="#000000">APL</text>
</g>
<!-- SIMULA -->
<g id="node59" class="node">
<title>SIMULA</title>
<polygon fill="#ffffff" stroke="#ffffff" points="205.5,-2776 146.5,-2776 146.5,-2740 205.5,-2740 205.5,-2776"/>
<text text-anchor="middle" x="176" y="-2754.3" font-family="Lucida Sans" font-size="14.00" fill="#000000">Simula</text>
</g>
<!-- SNOBOL -->
<g id="node60" class="node">
<title>SNOBOL</title>
<polygon fill="#ffffff" stroke="#ffffff" points="284,-2776 224,-2776 224,-2740 284,-2740 284,-2776"/>
<text text-anchor="middle" x="254" y="-2754.3" font-family="Lucida Sans" font-size="14.00" fill="#000000">SNOBOL</text>
</g>
<!-- CPL -->
<g id="node61" class="node">
<title>CPL</title>
<polygon fill="#ffffff" stroke="#ffffff" points="128,-2704 74,-2704 74,-2668 128,-2668 128,-2704"/>
<text text-anchor="middle" x="101" y="-2682.3" font-family="Lucida Sans" font-size="14.00" fill="#000000">CPL</text>
</g>
<!-- C -->
<g id="node71" class="node">
<title>C</title>
<polygon fill="#ffff00" stroke="#ffffff" points="183,-2200 129,-2200 129,-2164 183,-2164 183,-2200"/>
<text text-anchor="middle" x="156" y="-2178.3" font-family="Lucida Sans" font-size="14.00" fill="#000000">C</text>
</g>
<!-- CPL&#45;&gt;C -->
<g id="edge50" class="edge">
<title>CPL&#45;&gt;C</title>
<path fill="none" stroke="#000000" d="M101,-2667.8146C101,-2640.4983 101,-2587.25 101,-2542 101,-2542 101,-2542 101,-2326 101,-2282.9621 122.7052,-2237.1692 138.8451,-2209.0671"/>
<polygon fill="#000000" stroke="#000000" points="141.9852,-2210.6331 144.0658,-2200.2446 135.961,-2207.0682 141.9852,-2210.6331"/>
</g>
<!-- SPEAKEASY -->
<g id="node62" class="node">
<title>SPEAKEASY</title>
<polygon fill="#ffffff" stroke="#ffffff" points="211,-2632 129,-2632 129,-2596 211,-2596 211,-2632"/>
<text text-anchor="middle" x="170" y="-2610.3" font-family="Lucida Sans" font-size="14.00" fill="#000000">Speakeasy</text>
</g>
<!-- BASIC -->
<g id="node63" class="node">
<title>BASIC</title>
<polygon fill="#ffffff" stroke="#ffffff" points="283,-2632 229,-2632 229,-2596 283,-2596 283,-2632"/>
<text text-anchor="middle" x="256" y="-2610.3" font-family="Lucida Sans" font-size="14.00" fill="#000000">BASIC</text>
</g>
<!-- PL_I -->
<g id="node64" class="node">
<title>PL_I</title>
<polygon fill="#ffffff" stroke="#ffffff" points="355,-2632 301,-2632 301,-2596 355,-2596 355,-2632"/>
<text text-anchor="middle" x="328" y="-2610.3" font-family="Lucida Sans" font-size="14.00" fill="#000000">PL/I</text>
</g>
<!-- JOSS -->
<g id="node65" class="node">
<title>JOSS</title>
<polygon fill="#ffffff" stroke="#ffffff" points="183,-2560 129,-2560 129,-2524 183,-2524 183,-2560"/>
<text text-anchor="middle" x="156" y="-2538.3" font-family="Lucida Sans" font-size="14.00" fill="#000000">JOSS</text>
</g>
<!-- BCPL -->
<g id="node66" class="node">
<title>BCPL</title>
<polygon fill="#ffffff" stroke="#ffffff" points="183,-2488 129,-2488 129,-2452 183,-2452 183,-2488"/>
<text text-anchor="middle" x="156" y="-2466.3" font-family="Lucida Sans" font-size="14.00" fill="#000000">BCPL</text>
</g>
<!-- BCPL&#45;&gt;C -->
<g id="edge51" class="edge">
<title>BCPL&#45;&gt;C</title>
<path fill="none" stroke="#000000" d="M156,-2451.9843C156,-2403.2939 156,-2268.7961 156,-2210.0573"/>
<polygon fill="#000000" stroke="#000000" points="159.5001,-2210.0088 156,-2200.0089 152.5001,-2210.0089 159.5001,-2210.0088"/>
</g>
<!-- LOGO -->
<g id="node67" class="node">
<title>LOGO</title>
<polygon fill="#ffffff" stroke="#ffffff" points="238,-2416 184,-2416 184,-2380 238,-2380 238,-2416"/>
<text text-anchor="middle" x="211" y="-2394.3" font-family="Lucida Sans" font-size="14.00" fill="#000000">Logo</text>
</g>
<!-- B -->
<g id="node68" class="node">
<title>B</title>
<polygon fill="#ffffff" stroke="#ffffff" points="238,-2344 184,-2344 184,-2308 238,-2308 238,-2344"/>
<text text-anchor="middle" x="211" y="-2322.3" font-family="Lucida Sans" font-size="14.00" fill="#000000">B</text>
</g>
<!-- B&#45;&gt;C -->
<g id="edge52" class="edge">
<title>B&#45;&gt;C</title>
<path fill="none" stroke="#000000" d="M204.0342,-2307.7623C194.5705,-2282.9846 177.5689,-2238.4714 166.5393,-2209.5939"/>
<polygon fill="#000000" stroke="#000000" points="169.747,-2208.1826 162.9092,-2200.0896 163.2077,-2210.6803 169.747,-2208.1826"/>
</g>
<!-- PASCAL -->
<g id="node69" class="node">
<title>PASCAL</title>
<polygon fill="#ffffff" stroke="#ffffff" points="298.5,-2272 239.5,-2272 239.5,-2236 298.5,-2236 298.5,-2272"/>
<text text-anchor="middle" x="269" y="-2250.3" font-family="Lucida Sans" font-size="14.00" fill="#000000">Pascal</text>
</g>
<!-- FORTH -->
<g id="node70" class="node">
<title>FORTH</title>
<polygon fill="#ffffff" stroke="#ffffff" points="371,-2272 317,-2272 317,-2236 371,-2236 371,-2272"/>
<text text-anchor="middle" x="344" y="-2250.3" font-family="Lucida Sans" font-size="14.00" fill="#000000">Forth</text>
</g>
<!-- SMALLTALK -->
<g id="node72" class="node">
<title>SMALLTALK</title>
<polygon fill="#ffffff" stroke="#ffffff" points="281,-2200 201,-2200 201,-2164 281,-2164 281,-2200"/>
<text text-anchor="middle" x="241" y="-2178.3" font-family="Lucida Sans" font-size="14.00" fill="#000000">Smalltalk</text>
</g>
<!-- PROLOG -->
<g id="node73" class="node">
<title>PROLOG</title>
<polygon fill="#ffffff" stroke="#ffffff" points="358.5,-2200 299.5,-2200 299.5,-2164 358.5,-2164 358.5,-2200"/>
<text text-anchor="middle" x="329" y="-2178.3" font-family="Lucida Sans" font-size="14.00" fill="#000000">Prolog</text>
</g>
<!-- ML -->
<g id="node74" class="node">
<title>ML</title>
<polygon fill="#ffffff" stroke="#ffffff" points="128,-2128 74,-2128 74,-2092 128,-2092 128,-2128"/>
<text text-anchor="middle" x="101" y="-2106.3" font-family="Lucida Sans" font-size="14.00" fill="#000000">ML</text>
</g>
<!-- SCHEME -->
<g id="node75" class="node">
<title>SCHEME</title>
<polygon fill="#ffffff" stroke="#ffffff" points="133.5,-2056 74.5,-2056 74.5,-2020 133.5,-2020 133.5,-2056"/>
<text text-anchor="middle" x="104" y="-2034.3" font-family="Lucida Sans" font-size="14.00" fill="#000000">Scheme</text>
</g>
<!-- SQL -->
<g id="node76" class="node">
<title>SQL</title>
<polygon fill="#ffffff" stroke="#ffffff" points="128,-1984 74,-1984 74,-1948 128,-1948 128,-1984"/>
<text text-anchor="middle" x="101" y="-1962.3" font-family="Lucida Sans" font-size="14.00" fill="#000000">SQL</text>
</g>
<!-- CPP -->
<g id="node77" class="node">
<title>CPP</title>
<polygon fill="#ffff00" stroke="#ffffff" points="128,-1912 74,-1912 74,-1876 128,-1876 128,-1912"/>
<text text-anchor="middle" x="101" y="-1890.3" font-family="Lucida Sans" font-size="14.00" fill="#000000">C++</text>
</g>
<!-- ADA -->
<g id="node78" class="node">
<title>ADA</title>
<polygon fill="#ffffff" stroke="#ffffff" points="128,-1840 74,-1840 74,-1804 128,-1804 128,-1840"/>
<text text-anchor="middle" x="101" y="-1818.3" font-family="Lucida Sans" font-size="14.00" fill="#000000">Ada</text>
</g>
<!-- COMMON_LISP -->
<g id="node79" class="node">
<title>COMMON_LISP</title>
<polygon fill="#ffffff" stroke="#ffffff" points="170,-1768 74,-1768 74,-1732 170,-1732 170,-1768"/>
<text text-anchor="middle" x="122" y="-1746.3" font-family="Lucida Sans" font-size="14.00" fill="#000000">Common Lisp</text>
</g>
<!-- MATLAB -->
<g id="node80" class="node">
<title>MATLAB</title>
<polygon fill="#ffffff" stroke="#ffffff" points="245.5,-1768 188.5,-1768 188.5,-1732 245.5,-1732 245.5,-1768"/>
<text text-anchor="middle" x="217" y="-1746.3" font-family="Lucida Sans" font-size="14.00" fill="#000000">MATLAB</text>
</g>
<!-- DBASE_III -->
<g id="node81" class="node">
<title>DBASE_III</title>
<polygon fill="#ffffff" stroke="#ffffff" points="454.5,-1768 263.5,-1768 263.5,-1732 454.5,-1732 454.5,-1768"/>
<text text-anchor="middle" x="359" y="-1746.3" font-family="Lucida Sans" font-size="14.00" fill="#000000">dBase III, dBase III Plus</text>
</g>
<!-- EIFFEL -->
<g id="node82" class="node">
<title>EIFFEL</title>
<polygon fill="#ffffff" stroke="#ffffff" points="133.5,-1696 74.5,-1696 74.5,-1660 133.5,-1660 133.5,-1696"/>
<text text-anchor="middle" x="104" y="-1674.3" font-family="Lucida Sans" font-size="14.00" fill="#000000">Eiffel</text>
</g>
<!-- OBJECTIVE_C -->
<g id="node83" class="node">
<title>OBJECTIVE_C</title>
<polygon fill="#ffa500" stroke="#ffffff" points="169.5,-1624 74.5,-1624 74.5,-1588 169.5,-1588 169.5,-1624"/>
<text text-anchor="middle" x="122" y="-1602.3" font-family="Lucida Sans" font-size="14.00" fill="#000000">Objective&#45;C</text>
</g>
<!-- LABVIEW -->
<g id="node84" class="node">
<title>LABVIEW</title>
<polygon fill="#ffffff" stroke="#ffffff" points="254,-1624 188,-1624 188,-1588 254,-1588 254,-1624"/>
<text text-anchor="middle" x="221" y="-1602.3" font-family="Lucida Sans" font-size="14.00" fill="#000000">LabVIEW</text>
</g>
<!-- ERLANG -->
<g id="node85" class="node">
<title>ERLANG</title>
<polygon fill="#ffffff" stroke="#ffffff" points="331.5,-1624 272.5,-1624 272.5,-1588 331.5,-1588 331.5,-1624"/>
<text text-anchor="middle" x="302" y="-1602.3" font-family="Lucida Sans" font-size="14.00" fill="#000000">Erlang</text>
</g>
<!-- PERL -->
<g id="node86" class="node">
<title>PERL</title>
<polygon fill="#ffffff" stroke="#ffffff" points="128,-1552 74,-1552 74,-1516 128,-1516 128,-1552"/>
<text text-anchor="middle" x="101" y="-1530.3" font-family="Lucida Sans" font-size="14.00" fill="#000000">Perl</text>
</g>
<!-- TCL -->
<g id="node87" class="node">
<title>TCL</title>
<polygon fill="#ffffff" stroke="#ffffff" points="128,-1480 74,-1480 74,-1444 128,-1444 128,-1480"/>
<text text-anchor="middle" x="101" y="-1458.3" font-family="Lucida Sans" font-size="14.00" fill="#000000">Tcl</text>
</g>
<!-- WOLFRAM_LANGUAGE -->
<g id="node88" class="node">
<title>WOLFRAM_LANGUAGE</title>
<polygon fill="#ffffff" stroke="#ffffff" points="274,-1480 146,-1480 146,-1444 274,-1444 274,-1480"/>
<text text-anchor="middle" x="210" y="-1458.3" font-family="Lucida Sans" font-size="14.00" fill="#000000">Wolfram Language</text>
</g>
<!-- FL -->
<g id="node89" class="node">
<title>FL</title>
<polygon fill="#ffffff" stroke="#ffffff" points="128,-1408 74,-1408 74,-1372 128,-1372 128,-1408"/>
<text text-anchor="middle" x="101" y="-1386.3" font-family="Lucida Sans" font-size="14.00" fill="#000000">FL</text>
</g>
<!-- HASKELL -->
<g id="node90" class="node">
<title>HASKELL</title>
<polygon fill="#ffffff" stroke="#ffffff" points="141.5,-1336 74.5,-1336 74.5,-1300 141.5,-1300 141.5,-1336"/>
<text text-anchor="middle" x="108" y="-1314.3" font-family="Lucida Sans" font-size="14.00" fill="#000000">Haskell</text>
</g>
<!-- PYTHON -->
<g id="node91" class="node">
<title>PYTHON</title>
<polygon fill="#00ff00" stroke="#ffffff" points="133.5,-1264 74.5,-1264 74.5,-1228 133.5,-1228 133.5,-1264"/>
<text text-anchor="middle" x="104" y="-1242.3" font-family="Lucida Sans" font-size="14.00" fill="#000000">Python</text>
</g>
<!-- VISUAL_BASIC -->
<g id="node92" class="node">
<title>VISUAL_BASIC</title>
<polygon fill="#ffffff" stroke="#ffffff" points="254,-1264 152,-1264 152,-1228 254,-1228 254,-1264"/>
<text text-anchor="middle" x="203" y="-1242.3" font-family="Lucida Sans" font-size="14.00" fill="#000000">Visual Basic</text>
</g>
<!-- LUA -->
<g id="node93" class="node">
<title>LUA</title>
<polygon fill="#ffffff" stroke="#ffffff" points="128,-1192 74,-1192 74,-1156 128,-1156 128,-1192"/>
<text text-anchor="middle" x="101" y="-1170.3" font-family="Lucida Sans" font-size="14.00" fill="#000000">Lua</text>
</g>
<!-- R -->
<g id="node94" class="node">
<title>R</title>
<polygon fill="#ffffff" stroke="#ffffff" points="200,-1192 146,-1192 146,-1156 200,-1156 200,-1192"/>
<text text-anchor="middle" x="173" y="-1170.3" font-family="Lucida Sans" font-size="14.00" fill="#000000">R</text>
</g>
<!-- CLOS -->
<g id="node95" class="node">
<title>CLOS</title>
<polygon fill="#ffffff" stroke="#ffffff" points="277.5,-1120 74.5,-1120 74.5,-1082 277.5,-1082 277.5,-1120"/>
<text text-anchor="middle" x="176" y="-1104.8" font-family="Lucida Sans" font-size="14.00" fill="#000000">CLOS</text>
<text text-anchor="middle" x="176" y="-1089.8" font-family="Lucida Sans" font-size="14.00" fill="#000000">(part of ANSI Common Lisp)</text>
</g>
<!-- RUBY -->
<g id="node96" class="node">
<title>RUBY</title>
<polygon fill="#ffffff" stroke="#ffffff" points="128,-1045 74,-1045 74,-1009 128,-1009 128,-1045"/>
<text text-anchor="middle" x="101" y="-1023.3" font-family="Lucida Sans" font-size="14.00" fill="#000000">Ruby</text>
</g>
<!-- ADA95 -->
<g id="node97" class="node">
<title>ADA95</title>
<polygon fill="#ffffff" stroke="#ffffff" points="206,-1045 146,-1045 146,-1009 206,-1009 206,-1045"/>
<text text-anchor="middle" x="176" y="-1023.3" font-family="Lucida Sans" font-size="14.00" fill="#000000">Ada 95</text>
</g>
<!-- JAVA -->
<g id="node98" class="node">
<title>JAVA</title>
<polygon fill="#00ffff" stroke="#ffffff" points="278,-1045 224,-1045 224,-1009 278,-1009 278,-1045"/>
<text text-anchor="middle" x="251" y="-1023.3" font-family="Lucida Sans" font-size="14.00" fill="#000000">Java</text>
</g>
<!-- DELPHI -->
<g id="node99" class="node">
<title>DELPHI</title>
<polygon fill="#ffffff" stroke="#ffffff" points="405.5,-1046 296.5,-1046 296.5,-1008 405.5,-1008 405.5,-1046"/>
<text text-anchor="middle" x="351" y="-1030.8" font-family="Lucida Sans" font-size="14.00" fill="#000000">Delphi</text>
<text text-anchor="middle" x="351" y="-1015.8" font-family="Lucida Sans" font-size="14.00" fill="#000000">Object Pascal</text>
</g>
<!-- JAVA_SCRIPT -->
<g id="node100" class="node">
<title>JAVA_SCRIPT</title>
<polygon fill="#00ffff" stroke="#ffffff" points="512,-1045 424,-1045 424,-1009 512,-1009 512,-1045"/>
<text text-anchor="middle" x="468" y="-1023.3" font-family="Lucida Sans" font-size="14.00" fill="#000000">JavaScript</text>
</g>
<!-- PHP -->
<g id="node101" class="node">
<title>PHP</title>
<polygon fill="#ffffff" stroke="#ffffff" points="584,-1045 530,-1045 530,-1009 584,-1009 584,-1045"/>
<text text-anchor="middle" x="557" y="-1023.3" font-family="Lucida Sans" font-size="14.00" fill="#000000">PHP</text>
</g>
<!-- REBOL -->
<g id="node102" class="node">
<title>REBOL</title>
<polygon fill="#ffffff" stroke="#ffffff" points="128,-972 74,-972 74,-936 128,-936 128,-972"/>
<text text-anchor="middle" x="101" y="-950.3" font-family="Lucida Sans" font-size="14.00" fill="#000000">Rebol</text>
</g>
<!-- ACTION_SCRIPT -->
<g id="node103" class="node">
<title>ACTION_SCRIPT</title>
<polygon fill="#ffffff" stroke="#ffffff" points="176,-900 74,-900 74,-864 176,-864 176,-900"/>
<text text-anchor="middle" x="125" y="-878.3" font-family="Lucida Sans" font-size="14.00" fill="#000000">ActionScript</text>
</g>
<!-- C_SHARP -->
<g id="node104" class="node">
<title>C_SHARP</title>
<polygon fill="#ffffff" stroke="#ffffff" points="128,-828 74,-828 74,-792 128,-792 128,-828"/>
<text text-anchor="middle" x="101" y="-806.3" font-family="Lucida Sans" font-size="14.00" fill="#000000">C#</text>
</g>
<!-- D -->
<g id="node105" class="node">
<title>D</title>
<polygon fill="#ffffff" stroke="#ffffff" points="200,-828 146,-828 146,-792 200,-792 200,-828"/>
<text text-anchor="middle" x="173" y="-806.3" font-family="Lucida Sans" font-size="14.00" fill="#000000">D</text>
</g>
<!-- SCRATCH -->
<g id="node106" class="node">
<title>SCRATCH</title>
<polygon fill="#ffffff" stroke="#ffffff" points="140,-756 74,-756 74,-720 140,-720 140,-756"/>
<text text-anchor="middle" x="107" y="-734.3" font-family="Lucida Sans" font-size="14.00" fill="#000000">Scratch</text>
</g>
<!-- GROOVY -->
<g id="node107" class="node">
<title>GROOVY</title>
<polygon fill="#ffffff" stroke="#ffffff" points="133.5,-684 74.5,-684 74.5,-648 133.5,-648 133.5,-684"/>
<text text-anchor="middle" x="104" y="-662.3" font-family="Lucida Sans" font-size="14.00" fill="#000000">Groovy</text>
</g>
<!-- SCALA -->
<g id="node108" class="node">
<title>SCALA</title>
<polygon fill="#ffffff" stroke="#ffffff" points="206,-684 152,-684 152,-648 206,-648 206,-684"/>
<text text-anchor="middle" x="179" y="-662.3" font-family="Lucida Sans" font-size="14.00" fill="#000000">Scala</text>
</g>
<!-- F_SHARP -->
<g id="node109" class="node">
<title>F_SHARP</title>
<polygon fill="#ffffff" stroke="#ffffff" points="128,-612 74,-612 74,-576 128,-576 128,-612"/>
<text text-anchor="middle" x="101" y="-590.3" font-family="Lucida Sans" font-size="14.00" fill="#000000">F#</text>
</g>
<!-- POWER_SHELL -->
<g id="node110" class="node">
<title>POWER_SHELL</title>
<polygon fill="#ffffff" stroke="#ffffff" points="160,-540 74,-540 74,-504 160,-504 160,-540"/>
<text text-anchor="middle" x="117" y="-518.3" font-family="Lucida Sans" font-size="14.00" fill="#000000">PowerShell</text>
</g>
<!-- CLOJURE -->
<g id="node111" class="node">
<title>CLOJURE</title>
<polygon fill="#ffffff" stroke="#ffffff" points="140,-468 74,-468 74,-432 140,-432 140,-468"/>
<text text-anchor="middle" x="107" y="-446.3" font-family="Lucida Sans" font-size="14.00" fill="#000000">Clojure</text>
</g>
<!-- GO -->
<g id="node112" class="node">
<title>GO</title>
<polygon fill="#ffff00" stroke="#ffffff" points="128,-396 74,-396 74,-360 128,-360 128,-396"/>
<text text-anchor="middle" x="101" y="-374.3" font-family="Lucida Sans" font-size="14.00" fill="#000000">Go</text>
</g>
<!-- RUST -->
<g id="node113" class="node">
<title>RUST</title>
<polygon fill="#ffffff" stroke="#ffffff" points="128,-324 74,-324 74,-288 128,-288 128,-324"/>
<text text-anchor="middle" x="101" y="-302.3" font-family="Lucida Sans" font-size="14.00" fill="#000000">Rust</text>
</g>
<!-- DART -->
<g id="node114" class="node">
<title>DART</title>
<polygon fill="#ffffff" stroke="#ffffff" points="128,-252 74,-252 74,-216 128,-216 128,-252"/>
<text text-anchor="middle" x="101" y="-230.3" font-family="Lucida Sans" font-size="14.00" fill="#000000">Dart</text>
</g>
<!-- KOTLIN -->
<g id="node115" class="node">
<title>KOTLIN</title>
<polygon fill="#ffffff" stroke="#ffffff" points="206,-252 146,-252 146,-216 206,-216 206,-252"/>
<text text-anchor="middle" x="176" y="-230.3" font-family="Lucida Sans" font-size="14.00" fill="#000000">Kotlin</text>
</g>
<!-- RED -->
<g id="node116" class="node">
<title>RED</title>
<polygon fill="#ffffff" stroke="#ffffff" points="278,-252 224,-252 224,-216 278,-216 278,-252"/>
<text text-anchor="middle" x="251" y="-230.3" font-family="Lucida Sans" font-size="14.00" fill="#000000">Red</text>
</g>
<!-- ELIXIR -->
<g id="node117" class="node">
<title>ELIXIR</title>
<polygon fill="#ffffff" stroke="#ffffff" points="355.5,-252 296.5,-252 296.5,-216 355.5,-216 355.5,-252"/>
<text text-anchor="middle" x="326" y="-230.3" font-family="Lucida Sans" font-size="14.00" fill="#000000">Elixir</text>
</g>
<!-- JULIA -->
<g id="node118" class="node">
<title>JULIA</title>
<polygon fill="#ffffff" stroke="#ffffff" points="128,-180 74,-180 74,-144 128,-144 128,-180"/>
<text text-anchor="middle" x="101" y="-158.3" font-family="Lucida Sans" font-size="14.00" fill="#000000">Julia</text>
</g>
<!-- SWIFT -->
<g id="node119" class="node">
<title>SWIFT</title>
<polygon fill="#ffa500" stroke="#ffffff" points="128,-108 74,-108 74,-72 128,-72 128,-108"/>
<text text-anchor="middle" x="101" y="-86.3" font-family="Lucida Sans" font-size="14.00" fill="#000000">Swift</text>
</g>
<!-- RING -->
<g id="node120" class="node">
<title>RING</title>
<polygon fill="#ffffff" stroke="#ffffff" points="128,-36 74,-36 74,0 128,0 128,-36"/>
<text text-anchor="middle" x="101" y="-14.3" font-family="Lucida Sans" font-size="14.00" fill="#000000">Ring</text>
</g>
<!-- notice -->
<g id="node121" class="node">
<title>notice</title>
<polygon fill="#ffffff" stroke="#ffffff" points="612,-3359 292,-3359 292,-3246 612,-3246 612,-3359"/>
<text text-anchor="start" x="300" y="-3343.8" font-family="Lucida Sans" font-size="14.00" fill="#000000">Project: practice</text>
<text text-anchor="start" x="300" y="-3328.8" font-family="Lucida Sans" font-size="14.00" fill="#000000">Subject: Timeline of programming language</text>
<text text-anchor="start" x="300" y="-3313.8" font-family="Lucida Sans" font-size="14.00" fill="#000000">Author: YenHung Chen</text>
<text text-anchor="start" x="300" y="-3298.8" font-family="Lucida Sans" font-size="14.00" fill="#000000">E&#45;mail: yhchen@wizign.com</text>
<text text-anchor="start" x="300" y="-3283.8" font-family="Lucida Sans" font-size="14.00" fill="#000000">Revision:</text>
<text text-anchor="start" x="300" y="-3268.8" font-family="Lucida Sans" font-size="14.00" fill="#000000">========== ==================================</text>
<text text-anchor="start" x="300" y="-3253.8" font-family="Lucida Sans" font-size="14.00" fill="#000000">2018&#45;08&#45;26 Created by YenHung Chen</text>
</g>
</g>
</svg>
